# xmcd
#
# Track frame offsets: 
#        150
#        17312
#        30083
#        48047
#        68197
#        84331
#        97461
#        115910
#        129115
#        141149
#        151091
#        162708
#        179286
#        201048
#        222931
#        235978
#        252301
#        277013
#        291147
#
# Disc length: 4202 seconds
#
# Revision: 1
# Processed by: cddbd v1.5.2PL0 Copyright (c) Steve Scherf et al.
# Submitted via: ExactAudioCopyFreeDBPlugin 1.0
#
DISCID=04106813
DTITLE=Gaither Gospel Series - Rocky Mountain Homecoming with Bill and G
DTITLE=loria Gaither and their Homecoming Friends
DYEAR=2003
DGENRE=Country
TTITLE0=Wesley Pritchard, Reggie and Ladye Love Smith - Colorado
TTITLE1=The Gaither Vocal Band - That's When The Angels Rejoice
TTITLE2=Lauren Talley - He's Alive
TTITLE3=The Talley Trio - Praise You
TTITLE4=Ivan Parker - He Must Have Had A Mountain On His Mind
TTITLE5=The Booth Brothers - Castles In The Sand
TTITLE6=Jeff and Sheri Easter, Lillie Knauls - Sing, Sister, Sing
TTITLE7=The Gaither Vocal Band - America, The Beautiful
TTITLE8=Terry Blackwood, Russ Taff - The Workshop Of The Lord
TTITLE9=Kim Hopper, Wesley Pritchard, Amy Lambert - Higher Ground
TTITLE10=Jake Hess, The Talley Trio - I Just Love Old People
TTITLE11=Kim Hopper, TaRanda Greene, Ladye Love Smith, Allison Durham 
TTITLE11=Speer, Sue Dodge, Mike Allen, Gene McDonald, Glenn Dustin - W
TTITLE11=hen He Blessed My Soul
TTITLE12=Woody Wright, Stephen Hill, Joy Gardner - Bach Home Again
TTITLE13=Joy Gardner, Alicia Williamson - Come On In The Room
TTITLE14=The Florida Boys - My God Is Real
TTITLE15=Avalon - All Hail The Power Of Jesus Name
TTITLE16=The Isaacs - Sweet Holy Spirit
TTITLE17=Hovie Lister - Pass Me Not
TTITLE18=The Gaither Vocal Band - These Are They
EXTD=www.gerth.de, Art.-Nr. 3547458
EXTT0=
EXTT1=
EXTT2=
EXTT3=
EXTT4=
EXTT5=
EXTT6=
EXTT7=
EXTT8=
EXTT9=
EXTT10=
EXTT11=
EXTT12=
EXTT13=
EXTT14=
EXTT15=
EXTT16=
EXTT17=
EXTT18=
PLAYORDER=
